<svg width="50" height="59" viewBox="0 0 50 59" fill="none" xmlns="http://www.w3.org/2000/svg">
<g clip-path="url(#clip0_35_434)">
<path d="M49 50.74C47.6988 45.2452 44.5814 40.3504 40.1523 36.8477C35.7232 33.345 30.2417 31.4395 24.595 31.4395C18.9483 31.4395 13.4668 33.345 9.03776 36.8477C4.6087 40.3504 1.49127 45.2452 0.190029 50.74C-0.0410739 51.718 -0.0468352 52.7357 0.173181 53.7162C0.393197 54.6968 0.833233 55.6145 1.46003 56.4C2.10317 57.2129 2.92243 57.8693 3.85609 58.3197C4.78974 58.7701 5.81343 59.0027 6.85003 59H42.32C43.3577 59.003 44.3824 58.7695 45.3163 58.3172C46.2503 57.865 47.0689 57.2059 47.71 56.39C48.3394 55.6077 48.7827 54.6925 49.0062 53.7136C49.2296 52.7348 49.2276 51.7179 49 50.74Z" fill="black"/>
<path d="M24.58 26.62C27.2125 26.62 29.7858 25.8394 31.9747 24.3769C34.1635 22.9143 35.8695 20.8356 36.8769 18.4035C37.8843 15.9714 38.1478 13.2952 37.6343 10.7134C37.1207 8.13147 35.853 5.75985 33.9916 3.89841C32.1302 2.03698 29.7586 0.769323 27.1767 0.255754C24.5948 -0.257815 21.9186 0.00576699 19.4865 1.01317C17.0544 2.02057 14.9757 3.72655 13.5132 5.91537C12.0506 8.10418 11.27 10.6775 11.27 13.31C11.2727 16.8392 12.6758 20.2231 15.1714 22.7187C17.6669 25.2142 21.0508 26.6174 24.58 26.62Z" fill="black"/>
</g>
<defs>
<clipPath id="clip0_35_434">
<rect width="49.16" height="59" fill="white"/>
</clipPath>
</defs>
</svg>
