<svg width="19" height="23" viewBox="0 0 19 23" fill="none" xmlns="http://www.w3.org/2000/svg">
<g clip-path="url(#clip0_35_625)">
<path d="M18.6797 19.78C18.1837 17.638 16.9953 15.7298 15.3068 14.3644C13.6184 12.9989 11.5287 12.2561 9.37608 12.2561C7.22345 12.2561 5.1338 12.9989 3.44535 14.3644C1.75691 15.7298 0.568485 17.638 0.0724271 19.78C-0.0156738 20.1613 -0.0178701 20.558 0.0660042 20.9402C0.149879 21.3225 0.317629 21.6802 0.556576 21.9864C0.801754 22.3034 1.11407 22.5592 1.47 22.7348C1.82593 22.9104 2.21618 23.0011 2.61135 23H16.1332C16.5288 23.0012 16.9194 22.9101 17.2754 22.7338C17.6315 22.5576 17.9436 22.3006 18.188 21.9825C18.4279 21.6776 18.5969 21.3208 18.6821 20.9392C18.7673 20.5576 18.7665 20.1612 18.6797 19.78Z" fill="#F0635A"/>
<path d="M9.37037 10.3773C10.3739 10.3773 11.3549 10.073 12.1893 9.50285C13.0238 8.93271 13.6741 8.12236 14.0582 7.17425C14.4422 6.22615 14.5427 5.18289 14.3469 4.17639C14.1511 3.16989 13.6679 2.24537 12.9583 1.51972C12.2486 0.794076 11.3445 0.299906 10.3603 0.0997007C9.376 -0.100504 8.35578 0.00224815 7.42862 0.394964C6.50146 0.787681 5.70901 1.45272 5.15147 2.30599C4.59393 3.15926 4.29634 4.16243 4.29634 5.18865C4.29735 6.56444 4.83226 7.8836 5.7836 8.85643C6.73495 9.82927 8.02496 10.3763 9.37037 10.3773Z" fill="#F0635A"/>
</g>
<defs>
<clipPath id="clip0_35_625">
<rect width="18.7407" height="23" fill="white"/>
</clipPath>
</defs>
</svg>
