<svg width="22" height="23" viewBox="0 0 22 23" fill="none" xmlns="http://www.w3.org/2000/svg">
<g clip-path="url(#clip0_35_639)">
<path d="M17.0772 2.72881H16.6754V0.974576C16.6754 0.716103 16.5696 0.468215 16.3812 0.285447C16.1928 0.102678 15.9373 0 15.6709 0C15.4044 0 15.1489 0.102678 14.9605 0.285447C14.7722 0.468215 14.6663 0.716103 14.6663 0.974576V2.72881H6.62998V0.974576C6.62998 0.716103 6.52414 0.468215 6.33576 0.285447C6.14737 0.102678 5.89186 0 5.62544 0C5.35902 0 5.10351 0.102678 4.91512 0.285447C4.72673 0.468215 4.62089 0.716103 4.62089 0.974576V2.72881H4.21908C3.10044 2.72985 2.02791 3.16143 1.23691 3.92883C0.445914 4.69623 0.00106385 5.73676 0 6.82203L0 18.9068C0.00106385 19.9921 0.445914 21.0326 1.23691 21.8C2.02791 22.5674 3.10044 22.999 4.21908 23H17.0772C18.1959 22.999 19.2684 22.5674 20.0594 21.8C20.8504 21.0326 21.2952 19.9921 21.2963 18.9068V6.82203C21.2952 5.73676 20.8504 4.69623 20.0594 3.92883C19.2684 3.16143 18.1959 2.72985 17.0772 2.72881ZM17.0772 21.0508H4.21908C3.63328 21.0498 3.07177 20.8236 2.65755 20.4217C2.24333 20.0199 2.01015 19.4751 2.00908 18.9068V9.74576H19.2872V18.9068C19.2861 19.4751 19.053 20.0199 18.6387 20.4217C18.2245 20.8236 17.663 21.0498 17.0772 21.0508Z" fill="#29D697"/>
<path d="M13.8627 14.4588H11.6527V12.3147C11.6527 12.0563 11.5469 11.8084 11.3585 11.6256C11.1701 11.4429 10.9146 11.3402 10.6481 11.3402C10.3817 11.3402 10.1262 11.4429 9.93783 11.6256C9.74944 11.8084 9.64361 12.0563 9.64361 12.3147V14.4588H7.43361C7.16719 14.4588 6.91168 14.5615 6.72329 14.7443C6.5349 14.927 6.42907 15.1749 6.42907 15.4334C6.42907 15.6919 6.5349 15.9398 6.72329 16.1225C6.91168 16.3053 7.16719 16.408 7.43361 16.408H9.64361V18.552C9.64361 18.8105 9.74944 19.0584 9.93783 19.2412C10.1262 19.4239 10.3817 19.5266 10.6481 19.5266C10.9146 19.5266 11.1701 19.4239 11.3585 19.2412C11.5469 19.0584 11.6527 18.8105 11.6527 18.552V16.408H13.8627C14.1291 16.408 14.3846 16.3053 14.573 16.1225C14.7614 15.9398 14.8672 15.6919 14.8672 15.4334C14.8672 15.1749 14.7614 14.927 14.573 14.7443C14.3846 14.5615 14.1291 14.4588 13.8627 14.4588Z" fill="#29D697"/>
</g>
<defs>
<clipPath id="clip0_35_639">
<rect width="21.2963" height="23" fill="white"/>
</clipPath>
</defs>
</svg>
