<svg width="23" height="23" viewBox="0 0 23 23" fill="none" xmlns="http://www.w3.org/2000/svg">
<g clip-path="url(#clip0_35_632)">
<path d="M11.498 2.87305C9.43539 2.87305 7.41913 3.46348 5.70421 4.56966C3.98929 5.67583 2.65274 7.24806 1.86361 9.08751C1.07448 10.927 0.868211 12.951 1.2709 14.9036C1.67358 16.8562 2.66713 18.6497 4.12588 20.0572C5.58463 21.4647 7.44305 22.423 9.4661 22.811C11.4892 23.1989 13.5859 22.999 15.4913 22.2366C17.3967 21.4742 19.025 20.1835 20.1703 18.5277C21.3156 16.8719 21.9265 14.9255 21.9257 12.9346C21.9225 10.2664 20.8227 7.70839 18.8677 5.82205C16.9127 3.93571 14.2622 2.87512 11.498 2.87305ZM15.0924 16.7042C14.9573 16.9274 14.7366 17.0901 14.478 17.1573C14.2195 17.2244 13.944 17.1905 13.7111 17.0629L10.9931 15.5464C10.8422 15.4596 10.7174 15.3363 10.631 15.1886C10.5445 15.0409 10.4996 14.874 10.5004 14.7044V9.63661C10.5004 9.37814 10.6068 9.13025 10.7962 8.94748C10.9855 8.76472 11.2423 8.66204 11.5101 8.66204C11.7779 8.66204 12.0347 8.76472 12.224 8.94748C12.4134 9.13025 12.5197 9.37814 12.5197 9.63661V14.1392L14.7329 15.3749C14.847 15.4393 14.9469 15.5249 15.0267 15.6266C15.1065 15.7283 15.1648 15.8442 15.1982 15.9676C15.2316 16.0911 15.2394 16.2197 15.2212 16.3461C15.2031 16.4725 15.1593 16.5942 15.0924 16.7042Z" fill="#F59762"/>
<path d="M22.8263 4.97034C21.1704 2.60219 18.7066 0.869554 15.8637 0.0740686C15.7362 0.0390012 15.6027 0.0285275 15.471 0.0432453C15.3392 0.0579632 15.2118 0.0975845 15.0959 0.159847C14.8619 0.285592 14.6892 0.495925 14.6158 0.744577C14.5424 0.993229 14.5744 1.25983 14.7047 1.48573C14.8349 1.71163 15.0528 1.87833 15.3104 1.94915C17.6971 2.6196 19.7649 4.07622 21.1543 6.06576C21.2289 6.17173 21.3243 6.2625 21.4351 6.33288C21.546 6.40326 21.6701 6.45187 21.8004 6.47594C21.9307 6.50001 22.0647 6.49907 22.1946 6.47318C22.3246 6.44728 22.448 6.39693 22.5578 6.325C22.6675 6.25307 22.7616 6.16098 22.8345 6.05398C22.9074 5.94697 22.9578 5.82715 22.9827 5.70136C23.0076 5.57557 23.0067 5.44627 22.9798 5.32084C22.953 5.19541 22.9008 5.07631 22.8263 4.97034Z" fill="#F59762"/>
<path d="M1.84565 6.03068C3.24992 4.04836 5.31743 2.59221 7.70166 1.90627C7.82842 1.86967 7.94647 1.80933 8.04906 1.72869C8.15166 1.64805 8.23679 1.54869 8.29961 1.43629C8.36243 1.3239 8.40169 1.20066 8.41517 1.07361C8.42864 0.946564 8.41606 0.8182 8.37814 0.695848C8.34022 0.573496 8.2777 0.459552 8.19416 0.360521C8.11062 0.26149 8.00768 0.179312 7.89124 0.118678C7.7748 0.0580449 7.64712 0.0201435 7.5155 0.00713842C7.38388 -0.00586669 7.2509 0.00627908 7.12414 0.0428823C4.29489 0.856561 1.84111 2.58375 0.173658 4.93526C0.0238114 5.1493 -0.0318598 5.41202 0.018879 5.66567C0.0696177 5.91932 0.222615 6.14315 0.444246 6.28797C0.60978 6.40025 0.807335 6.46018 1.00965 6.45949C1.1747 6.45941 1.3372 6.42028 1.48295 6.34553C1.62869 6.27077 1.75323 6.16267 1.84565 6.03068Z" fill="#F59762"/>
</g>
<defs>
<clipPath id="clip0_35_632">
<rect width="23" height="23" fill="white"/>
</clipPath>
</defs>
</svg>
