<svg width="30" height="23" viewBox="0 0 30 23" fill="none" xmlns="http://www.w3.org/2000/svg">
<path d="M19.1851 2.28951C19.0545 2.2003 18.9041 2.14438 18.7469 2.12664C18.5898 2.10889 18.4307 2.12987 18.2835 2.18772L7.42585 6.4096H1.83707C1.34941 6.41088 0.88215 6.60551 0.537771 6.95079C0.193392 7.29608 -1.6886e-06 7.76385 0 8.25152V12.74C-1.6886e-06 13.2277 0.193392 13.6954 0.537771 14.0407C0.88215 14.386 1.34941 14.5806 1.83707 14.5819H2.46236L3.73231 21.1159C3.91264 21.6816 4.29434 22.1614 4.805 22.4643C5.31566 22.7672 5.91974 22.8721 6.50262 22.7591C7.08551 22.6461 7.60664 22.3231 7.96713 21.8513C8.32762 21.3795 8.5024 20.7919 8.45829 20.1998L7.36768 14.5819H7.42585L18.2835 18.8038C18.3963 18.8477 18.5162 18.8707 18.6373 18.8716C18.8944 18.8716 19.141 18.7695 19.3228 18.5877C19.5046 18.4059 19.6068 18.1593 19.6068 17.9022V3.0893C19.6067 2.93175 19.5683 2.77659 19.4949 2.63723C19.4214 2.49788 19.315 2.37853 19.1851 2.28951Z" fill="#FDC400"/>
<path d="M25.6899 4.10718C25.5827 3.97509 25.4489 3.86707 25.2971 3.79014C25.1454 3.71321 24.9792 3.66909 24.8092 3.66065C24.6393 3.65221 24.4695 3.67965 24.3109 3.74118C24.1523 3.8027 24.0084 3.89694 23.8886 4.01775C23.7689 4.13856 23.6758 4.28324 23.6157 4.44237C23.5555 4.6015 23.5295 4.77152 23.5394 4.94136C23.5493 5.1112 23.5948 5.27706 23.6731 5.42814C23.7513 5.57921 23.8604 5.71212 23.9934 5.81822C24.6081 6.43225 25.0957 7.16141 25.4284 7.964C25.7611 8.7666 25.9324 9.62691 25.9324 10.4957C25.9324 11.3646 25.7611 12.2249 25.4284 13.0275C25.0957 13.8301 24.6081 14.5592 23.9934 15.1732C23.8051 15.4052 23.7091 15.6986 23.7239 15.9971C23.7387 16.2956 23.8633 16.578 24.0737 16.7902C24.2841 17.0024 24.5655 17.1294 24.8638 17.1468C25.1621 17.1641 25.4563 17.0706 25.6899 16.8843C27.3842 15.1899 28.336 12.8919 28.336 10.4957C28.336 8.09958 27.3842 5.80157 25.6899 4.10718Z" fill="#FDC400"/>
<path d="M23.213 7.79588C22.9822 7.58951 22.6811 7.47934 22.3715 7.48801C22.062 7.49667 21.7675 7.6235 21.5486 7.84246C21.3296 8.06142 21.2028 8.35589 21.1941 8.66542C21.1855 8.97496 21.2956 9.27606 21.502 9.50692C21.7625 9.77011 21.9086 10.1254 21.9086 10.4957C21.9086 10.866 21.7625 11.2214 21.502 11.4846C21.3893 11.5967 21.2999 11.73 21.2388 11.8768C21.1778 12.0237 21.1464 12.1811 21.1464 12.3401C21.1464 12.4991 21.1778 12.6565 21.2388 12.8033C21.2999 12.9501 21.3893 13.0835 21.502 13.1956C21.6133 13.3086 21.7462 13.3981 21.8927 13.4589C22.0392 13.5196 22.1965 13.5504 22.3551 13.5495C22.5144 13.55 22.6722 13.519 22.8194 13.4583C22.9667 13.3976 23.1004 13.3083 23.213 13.1956C23.9276 12.4788 24.3288 11.5079 24.3288 10.4957C24.3288 9.4836 23.9276 8.51273 23.213 7.79588Z" fill="#FDC400"/>
</svg>
