<svg width="18" height="14" viewBox="0 0 18 14" fill="none" xmlns="http://www.w3.org/2000/svg">
<path d="M12.3352 1.03798C12.2544 0.982752 12.1613 0.948137 12.064 0.937154C11.9667 0.926171 11.8683 0.939153 11.7771 0.974969L5.05591 3.58845H1.59627C1.29439 3.58924 1.00514 3.70972 0.791959 3.92347C0.578777 4.13721 0.45906 4.42677 0.459061 4.72866V7.50717C0.45906 7.80905 0.578777 8.09861 0.791959 8.31236C1.00514 8.5261 1.29439 8.64658 1.59627 8.64738H1.98334L2.76949 12.6921C2.88111 13.0423 3.1174 13.3393 3.43352 13.5268C3.74963 13.7143 4.12358 13.7793 4.4844 13.7093C4.84522 13.6394 5.16782 13.4394 5.39098 13.1474C5.61413 12.8553 5.72233 12.4915 5.69502 12.125L5.0199 8.64738H5.05591L11.7771 11.2609C11.847 11.288 11.9212 11.3023 11.9962 11.3029C12.1553 11.3029 12.308 11.2396 12.4205 11.1271C12.5331 11.0146 12.5963 10.8619 12.5963 10.7028V1.53307C12.5963 1.43555 12.5725 1.3395 12.527 1.25323C12.4815 1.16696 12.4157 1.09308 12.3352 1.03798Z" fill="#5669FF"/>
<path d="M16.362 2.16317C16.2956 2.08141 16.2128 2.01454 16.1188 1.96691C16.0249 1.91929 15.922 1.89198 15.8168 1.88676C15.7116 1.88153 15.6065 1.89852 15.5083 1.93661C15.4101 1.97469 15.3211 2.03303 15.2469 2.10781C15.1728 2.1826 15.1152 2.27216 15.0779 2.37067C15.0407 2.46918 15.0246 2.57442 15.0307 2.67956C15.0369 2.7847 15.065 2.88737 15.1135 2.98089C15.1619 3.07441 15.2295 3.15669 15.3118 3.22237C15.6923 3.60247 15.9941 4.05384 16.2001 4.55068C16.406 5.04751 16.512 5.58007 16.512 6.1179C16.512 6.65573 16.406 7.18828 16.2001 7.68512C15.9941 8.18195 15.6923 8.63333 15.3118 9.01343C15.1952 9.15704 15.1358 9.33867 15.145 9.52343C15.1541 9.70818 15.2312 9.88303 15.3615 10.0144C15.4917 10.1457 15.6659 10.2244 15.8506 10.2351C16.0353 10.2458 16.2174 10.188 16.362 10.0726C17.4108 9.02374 18 7.60119 18 6.1179C18 4.6346 17.4108 3.21206 16.362 2.16317Z" fill="#5669FF"/>
<path d="M14.8287 4.4466C14.6858 4.31885 14.4994 4.25065 14.3078 4.25602C14.1162 4.26138 13.9339 4.33989 13.7983 4.47543C13.6628 4.61098 13.5843 4.79326 13.5789 4.98488C13.5736 5.17649 13.6418 5.36288 13.7695 5.50579C13.9308 5.66871 14.0212 5.88868 14.0212 6.1179C14.0212 6.34713 13.9308 6.5671 13.7695 6.73002C13.6997 6.79944 13.6444 6.88197 13.6066 6.97285C13.5688 7.06374 13.5494 7.16119 13.5494 7.25961C13.5494 7.35804 13.5688 7.45549 13.6066 7.54638C13.6444 7.63726 13.6997 7.71979 13.7695 7.78921C13.8384 7.85914 13.9207 7.91455 14.0114 7.95217C14.1021 7.98979 14.1994 8.00886 14.2976 8.00825C14.3962 8.00859 14.4939 7.98941 14.585 7.95182C14.6762 7.91422 14.759 7.85896 14.8287 7.78921C15.271 7.34545 15.5194 6.74445 15.5194 6.1179C15.5194 5.49135 15.271 4.89035 14.8287 4.4466Z" fill="#5669FF"/>
</svg>
