<svg width="59" height="59" viewBox="0 0 59 59" fill="none" xmlns="http://www.w3.org/2000/svg">
<g clip-path="url(#clip0_35_1099)">
<path d="M48.5 10.71H32.87L23.87 0.82C23.6396 0.56778 23.3604 0.365029 23.0492 0.224066C22.7381 0.0831024 22.4015 0.0068699 22.06 0L2.5 0C1.83696 0 1.20107 0.263392 0.732233 0.732233C0.263392 1.20107 0 1.83696 0 2.5L0 48.21C0.00264761 50.994 1.10974 53.6631 3.0783 55.6317C5.04686 57.6003 7.71604 58.7074 10.5 58.71H48.5C51.284 58.7074 53.9531 57.6003 55.9217 55.6317C57.8903 53.6631 58.9974 50.994 59 48.21V21.21C58.9974 18.426 57.8903 15.7569 55.9217 13.7883C53.9531 11.8197 51.284 10.7126 48.5 10.71ZM5 5H21L26.17 10.71H5V5Z" fill="#F0635A"/>
</g>
<defs>
<clipPath id="clip0_35_1099">
<rect width="59" height="58.71" fill="white"/>
</clipPath>
</defs>
</svg>
