<svg width="59" height="51" viewBox="0 0 59 51" fill="none" xmlns="http://www.w3.org/2000/svg">
<g clip-path="url(#clip0_35_566)">
<path d="M48.5 0H10.5C7.71604 0.00264761 5.04686 1.10974 3.0783 3.0783C1.10974 5.04686 0.00264761 7.71604 0 10.5L0 40.5C0.00264761 43.284 1.10974 45.9531 3.0783 47.9217C5.04686 49.8903 7.71604 50.9974 10.5 51H48.5C51.284 50.9974 53.9531 49.8903 55.9217 47.9217C57.8903 45.9531 58.9974 43.284 59 40.5V10.5C58.9974 7.71604 57.8903 5.04686 55.9217 3.0783C53.9531 1.10974 51.284 0.00264761 48.5 0ZM51.73 17.31L33.79 27.4C32.4772 28.1276 31.0009 28.5093 29.5 28.5093C27.9991 28.5093 26.5228 28.1276 25.21 27.4L7.27 17.31C6.94338 17.1733 6.64952 16.9688 6.40787 16.7101C6.16622 16.4513 5.98229 16.1441 5.86825 15.809C5.75422 15.4738 5.71269 15.1182 5.7464 14.7657C5.78011 14.4133 5.8883 14.072 6.06381 13.7645C6.23932 13.457 6.47814 13.1903 6.76447 12.982C7.05079 12.7738 7.37809 12.6287 7.72469 12.5564C8.0713 12.4841 8.4293 12.4863 8.775 12.5628C9.1207 12.6392 9.44622 12.7883 9.73 13L27.66 23C28.2223 23.3144 28.8558 23.4795 29.5 23.4795C30.1442 23.4795 30.7777 23.3144 31.34 23L49.27 13C49.5562 12.8258 49.8745 12.7108 50.206 12.662C50.5375 12.6132 50.8755 12.6316 51.1997 12.716C51.524 12.8004 51.828 12.9491 52.0937 13.1533C52.3593 13.3575 52.5812 13.6131 52.7462 13.9048C52.9111 14.1964 53.0157 14.5183 53.0538 14.8512C53.0919 15.1841 53.0627 15.5212 52.9679 15.8426C52.8731 16.164 52.7147 16.4631 52.502 16.722C52.2894 16.981 52.0268 17.1945 51.73 17.35V17.31Z" fill="black"/>
</g>
<defs>
<clipPath id="clip0_35_566">
<rect width="59" height="51" fill="white"/>
</clipPath>
</defs>
</svg>
