<svg width="22" height="23" viewBox="0 0 22 23" fill="none" xmlns="http://www.w3.org/2000/svg">
<g clip-path="url(#clip0_35_645)">
<path d="M12.9373 17.0277C14.052 17.0258 15.1351 16.6609 16.0199 15.989C16.9046 15.3171 17.542 14.3755 17.8338 13.3093H3.32619C3.618 14.3755 4.25537 15.3171 5.14015 15.989C6.02493 16.6609 7.10803 17.0258 8.22266 17.0277H9.61502V19.136H8.61329C7.83608 19.137 7.09098 19.4435 6.54141 19.9882C5.99183 20.5329 5.68263 21.2713 5.6816 22.0417C5.6816 22.1675 5.70661 22.2921 5.75521 22.4084C5.8038 22.5247 5.87502 22.6303 5.96481 22.7193C6.05459 22.8083 6.16119 22.8789 6.2785 22.9271C6.39581 22.9752 6.52154 23 6.64852 23C6.7755 23 6.90123 22.9752 7.01854 22.9271C7.13585 22.8789 7.24245 22.8083 7.33223 22.7193C7.42202 22.6303 7.49324 22.5247 7.54183 22.4084C7.59043 22.2921 7.61544 22.1675 7.61544 22.0417C7.61646 21.7797 7.72191 21.5287 7.90883 21.3435C8.09574 21.1582 8.34896 21.0537 8.61329 21.0527H12.5467C12.8097 21.0557 13.0609 21.1611 13.2462 21.3461C13.4314 21.5312 13.5358 21.781 13.5368 22.0417C13.5368 22.2958 13.6387 22.5396 13.82 22.7193C14.0014 22.899 14.2473 23 14.5037 23C14.7602 23 15.0061 22.899 15.1875 22.7193C15.3688 22.5396 15.4707 22.2958 15.4707 22.0417C15.4696 21.2713 15.1604 20.5329 14.6109 19.9882C14.0613 19.4435 13.3162 19.137 12.539 19.136H11.5489V17.0277H12.9373Z" fill="#8C3EF1"/>
<path d="M20.1931 6.6585H18.2593C18.1321 6.65799 18.0062 6.68244 17.8886 6.73042C17.7711 6.7784 17.6643 6.84897 17.5744 6.93806C17.4845 7.02715 17.4133 7.133 17.3649 7.2495C17.3165 7.366 17.2918 7.49084 17.2923 7.61683V9.476H16.132V3.55733C16.132 2.61453 15.7544 1.71029 15.0822 1.04327C14.4099 0.376254 13.498 0.00101595 12.5467 0L8.61329 0C7.66205 0.00101595 6.75012 0.376254 6.07785 1.04327C5.40558 1.71029 5.02797 2.61453 5.02797 3.55733V9.476H3.86767V7.61683C3.86818 7.49084 3.84352 7.366 3.79511 7.2495C3.74669 7.133 3.67549 7.02715 3.5856 6.93806C3.49571 6.84897 3.38892 6.7784 3.27138 6.73042C3.15383 6.68244 3.02787 6.65799 2.90075 6.6585H0.966916C0.710474 6.6585 0.464535 6.75947 0.283203 6.93919C0.101871 7.11891 0 7.36267 0 7.61683C0 7.871 0.101871 8.11476 0.283203 8.29448C0.464535 8.4742 0.710474 8.57517 0.966916 8.57517H1.93383V10.4343C1.93383 10.6885 2.0357 10.9323 2.21704 11.112C2.39837 11.2917 2.64431 11.3927 2.90075 11.3927H18.2593C18.5157 11.3927 18.7616 11.2917 18.943 11.112C19.1243 10.9323 19.2262 10.6885 19.2262 10.4343V8.57517H20.1931C20.4495 8.57517 20.6955 8.4742 20.8768 8.29448C21.0581 8.11476 21.16 7.871 21.16 7.61683C21.16 7.36267 21.0581 7.11891 20.8768 6.93919C20.6955 6.75947 20.4495 6.6585 20.1931 6.6585Z" fill="#8C3EF1"/>
</g>
<defs>
<clipPath id="clip0_35_645">
<rect width="21.16" height="23" fill="white"/>
</clipPath>
</defs>
</svg>
