<svg xmlns="http://www.w3.org/2000/svg"
     width="139.34" height="148.212"
     viewBox="0 0 139.34 148.212">
    <g transform="translate(-15.914 -12.429)"><path d="M60.93,56.792A6.434,6.434,0,1,0,54.5,63.228a6.435,6.435,0,0,0,6.432-6.436" transform="translate(68.774 81.145)" fill="red"/><path d="M92.541,122.816H51.275a11.366,11.366,0,0,1-11.352-11.352v-70A11.366,11.366,0,0,1,51.275,30.11H92.541a11.364,11.364,0,0,1,11.352,11.352v70a11.364,11.364,0,0,1-11.352,11.352M51.275,38.8a2.664,2.664,0,0,0-2.659,2.659v70a2.662,2.662,0,0,0,2.659,2.659H92.541a2.662,2.662,0,0,0,2.659-2.659v-70A2.664,2.664,0,0,0,92.541,38.8Z" transform="translate(51.362 37.825)" fill="red"/><path d="M45.779,60.335H35.24a4.714,4.714,0,1,1,0-9.427H45.779a4.714,4.714,0,0,1,0,9.427" transform="translate(31.257 82.318)" fill="red"/><path d="M106.407,160.641H29.523a13.626,13.626,0,0,1-13.609-13.612V26.038A13.626,13.626,0,0,1,29.523,12.429h84.485a13.624,13.624,0,0,1,13.609,13.609V72.28a4.345,4.345,0,1,1-8.69,0V26.038a4.927,4.927,0,0,0-4.919-4.919H29.523a4.926,4.926,0,0,0-4.916,4.919V147.029a4.924,4.924,0,0,0,4.916,4.919h76.884a4.346,4.346,0,0,1,0,8.693" transform="translate(0 0)" fill="red"/></g></svg>