<?xml version="1.0" standalone="no"?>
<!DOCTYPE svg PUBLIC "-//W3C//DTD SVG 20010904//EN"
 "http://www.w3.org/TR/2001/REC-SVG-20010904/DTD/svg10.dtd">
<svg version="1.0" xmlns="http://www.w3.org/2000/svg"
 width="128.000000pt" height="128.000000pt" viewBox="0 0 128.000000 128.000000"
 preserveAspectRatio="xMidYMid meet">
<metadata>
Created by potrace 1.16, written by Peter Selinger 2001-2019
</metadata>
<g transform="translate(0.000000,128.000000) scale(0.100000,-0.100000)"
fill="#000000" stroke="none">
<path d="M566 1265 c-3 -9 -6 -43 -6 -75 0 -50 -3 -60 -20 -65 -11 -3 -20 -15
-20 -26 0 -14 7 -19 29 -19 42 0 61 32 61 102 0 55 1 58 25 58 l25 0 0 -109
c0 -116 -2 -121 -54 -121 -39 0 -162 -68 -201 -111 -129 -143 -129 -375 0
-518 39 -43 162 -111 201 -111 41 0 54 -11 54 -45 0 -39 14 -52 35 -35 11 9
15 35 15 94 0 44 -4 86 -8 92 -4 6 -27 14 -50 18 -94 14 -173 80 -203 168 -12
38 -23 53 -36 53 -44 0 -14 -103 51 -173 44 -48 95 -78 153 -90 25 -5 39 -14
41 -26 3 -15 -1 -17 -30 -11 -264 54 -364 369 -178 555 63 63 210 123 210 85
0 -8 -6 -17 -12 -19 -7 -2 -35 -10 -61 -17 -65 -16 -147 -91 -176 -160 -26
-58 -25 -94 2 -94 13 0 23 15 36 53 31 90 111 156 206 169 35 4 46 11 51 27 2
11 3 98 2 191 l-3 170 -66 3 c-54 2 -68 0 -73 -13z"/>
<path d="M222 1097 c-77 -77 -79 -96 -18 -156 l43 -43 -20 -41 c-11 -23 -23
-53 -27 -67 -6 -23 -12 -25 -70 -28 -35 -2 -70 -8 -77 -14 -7 -6 -13 -28 -13
-49 0 -32 4 -39 19 -39 14 0 21 8 23 28 3 26 6 27 72 32 47 3 71 10 77 20 20
39 69 153 69 162 0 5 -21 31 -47 59 l-47 50 52 52 52 51 43 -42 c31 -31 51
-42 73 -42 33 0 71 31 59 49 -8 14 -38 14 -51 1 -7 -7 -25 5 -54 35 -61 62
-80 60 -158 -18z"/>
<path d="M752 1051 c-9 -5 -12 -29 -10 -82 l3 -74 80 0 80 0 3 68 c2 42 -2 74
-9 83 -13 15 -124 20 -147 5z"/>
<path d="M910 871 c-5 -11 -10 -41 -10 -66 0 -76 10 -85 90 -85 58 0 71 3 80
19 14 27 13 124 -2 139 -7 7 -40 12 -80 12 -56 0 -69 -3 -78 -19z"/>
<path d="M758 719 c-14 -8 -18 -24 -18 -79 0 -80 9 -90 85 -90 76 0 85 10 85
90 0 58 -3 71 -19 80 -25 13 -111 13 -133 -1z"/>
<path d="M1088 719 c-14 -8 -18 -24 -18 -79 0 -80 9 -90 85 -90 76 0 85 10 85
90 0 58 -3 71 -19 80 -25 13 -111 13 -133 -1z"/>
<path d="M40 581 c0 -21 6 -43 13 -49 7 -6 42 -12 77 -14 58 -3 64 -5 70 -28
4 -14 16 -44 27 -67 l20 -41 -43 -43 c-61 -60 -59 -80 19 -157 77 -77 96 -79
156 -18 l43 44 32 -18 c17 -10 48 -23 69 -30 l37 -12 0 -61 c0 -34 4 -68 9
-75 5 -9 27 -12 72 -10 l64 3 0 65 c0 60 -2 65 -22 68 -21 3 -23 0 -23 -47 0
-48 -2 -51 -25 -51 -24 0 -25 3 -25 58 0 66 -16 96 -57 107 -14 3 -45 15 -67
26 -60 29 -84 25 -133 -23 l-43 -42 -52 51 -52 52 47 50 c26 28 47 54 47 59 0
9 -49 123 -69 162 -6 10 -30 17 -77 20 -66 5 -69 6 -72 33 -2 19 -9 27 -23 27
-15 0 -19 -7 -19 -39z"/>
<path d="M910 541 c-5 -11 -10 -41 -10 -66 0 -76 10 -85 88 -85 40 0 73 5 80
12 15 15 16 112 2 139 -9 16 -22 19 -80 19 -58 0 -71 -3 -80 -19z"/>
<path d="M747 384 c-4 -4 -7 -40 -7 -80 0 -83 1 -84 90 -84 74 0 82 10 78 97
l-3 68 -75 3 c-42 1 -79 0 -83 -4z"/>
</g>
</svg>
