<?xml version="1.0" standalone="no"?>
<!DOCTYPE svg PUBLIC "-//W3C//DTD SVG 20010904//EN"
 "http://www.w3.org/TR/2001/REC-SVG-20010904/DTD/svg10.dtd">
<svg version="1.0" xmlns="http://www.w3.org/2000/svg"
 width="128.000000pt" height="128.000000pt" viewBox="0 0 128.000000 128.000000"
 preserveAspectRatio="xMidYMid meet">
<metadata>
Created by potrace 1.16, written by Peter Selinger 2001-2019
</metadata>
<g transform="translate(0.000000,128.000000) scale(0.100000,-0.100000)"
fill="#000000" stroke="none">
<path d="M550 1249 c-25 -5 -70 -18 -102 -30 -43 -16 -61 -18 -76 -10 -32 17
-58 13 -88 -13 -21 -18 -28 -32 -27 -59 1 -27 -6 -42 -28 -63 -32 -31 -37 -52
-13 -61 9 -3 27 6 45 23 23 22 37 28 65 25 21 -1 46 4 60 14 31 20 52 16 140
-27 55 -27 64 -35 64 -57 -1 -33 -118 -161 -148 -161 -11 0 -34 -11 -50 -25
-23 -19 -41 -25 -78 -25 -27 0 -75 -4 -108 -10 -47 -7 -61 -7 -73 5 -17 18
-12 36 29 119 29 58 31 86 4 86 -18 0 -42 -38 -70 -110 -16 -43 -31 -65 -56
-82 -29 -20 -35 -30 -38 -66 -3 -34 2 -46 21 -64 18 -17 26 -38 31 -83 16
-127 73 -256 154 -346 32 -36 47 -62 48 -83 1 -19 12 -39 28 -53 27 -23 80
-31 91 -14 3 5 31 -1 64 -14 131 -53 287 -57 427 -10 53 18 86 24 110 19 19
-3 45 -3 59 0 27 7 60 59 51 83 -4 9 13 36 45 71 57 65 111 169 134 257 32
125 15 301 -39 421 -15 33 -21 56 -15 65 15 23 10 55 -12 83 -16 20 -29 26
-58 26 -46 0 -71 24 -71 68 0 21 -8 37 -26 51 -30 24 -52 26 -87 10 -19 -8
-31 -8 -53 4 -74 38 -250 56 -354 36z m235 -49 c64 -17 125 -41 125 -49 0 -5
-21 -16 -47 -26 -27 -10 -68 -28 -93 -40 -36 -17 -50 -20 -73 -11 -19 7 -36 7
-57 -1 -24 -9 -37 -7 -86 18 -31 16 -74 34 -96 41 -21 6 -38 15 -38 19 0 7 95
41 145 52 39 9 181 7 220 -3z m156 -126 c10 -12 25 -15 61 -12 55 6 63 -2 59
-49 -1 -18 5 -45 14 -61 16 -27 16 -31 -14 -107 -35 -91 -71 -157 -87 -162 -6
-2 -31 29 -54 68 -24 40 -72 105 -106 145 -79 90 -82 114 -22 145 46 24 107
47 124 48 6 1 18 -6 25 -15z m-177 -200 c43 -43 146 -188 146 -205 0 -3 -38 9
-84 28 -93 37 -224 73 -266 73 -15 0 -33 7 -40 15 -14 17 -10 23 62 100 34 36
42 40 85 39 44 0 52 -5 97 -50z m430 -19 c47 -117 55 -237 24 -362 l-10 -41
-81 65 c-44 36 -82 73 -82 82 -1 9 -5 26 -9 38 -5 15 3 42 27 90 19 37 45 96
57 131 12 34 28 62 35 62 7 0 25 -29 39 -65z m-820 -141 c5 -17 -2 -47 -18
-87 -36 -90 -56 -203 -56 -312 0 -52 -4 -95 -8 -95 -13 0 -58 51 -95 110 -42
68 -83 177 -92 251 -6 52 -5 56 19 72 14 10 26 24 26 31 0 25 24 34 110 44 47
5 90 10 96 11 7 0 15 -11 18 -25z m276 -11 c36 -9 103 -31 150 -49 84 -34 85
-35 88 -71 2 -34 -4 -43 -65 -106 -93 -95 -202 -175 -315 -231 l-95 -47 -31
18 c-22 13 -32 27 -36 53 -8 51 10 196 35 276 30 98 45 124 72 124 28 0 67 26
67 45 0 16 17 14 130 -12z m463 -238 c37 -31 67 -62 67 -69 0 -24 -113 -176
-131 -176 -5 0 -9 28 -11 62 -3 55 -5 63 -23 63 -17 0 -20 -8 -23 -55 -3 -47
-8 -58 -34 -80 -18 -15 -30 -36 -31 -52 -2 -23 -10 -31 -47 -47 -132 -56 -295
-54 -432 3 -22 10 -35 21 -33 29 3 7 32 23 64 35 130 50 314 182 409 292 57
67 78 66 89 -2 7 -43 12 -53 28 -53 22 0 26 30 12 93 -6 29 -5 31 11 23 9 -5
47 -35 85 -66z"/>
</g>
</svg>
