<svg width="30" height="23" viewBox="0 0 30 23" fill="none" xmlns="http://www.w3.org/2000/svg">
<g clip-path="url(#clip0_35_651)">
<path d="M29.6941 19.8589C29.4382 18.7835 28.9649 17.7692 28.3023 16.8757C27.6396 15.9822 26.8009 15.2276 25.8357 14.6563C24.8704 14.0851 23.7982 13.7089 22.682 13.5498C21.5659 13.3907 20.4285 13.4519 19.337 13.7299C20.6606 15.2276 21.5936 17.0172 22.0562 18.9452C22.2208 19.6339 22.2418 20.3479 22.1178 21.0446C21.9939 21.7414 21.7275 22.4064 21.3347 23H27.1111C27.5129 23.0005 27.9095 22.9119 28.2712 22.7409C28.633 22.5698 28.9504 22.3207 29.1997 22.0122C29.4433 21.7134 29.6144 21.3643 29.7001 20.9913C29.7857 20.6183 29.7837 20.2311 29.6941 19.8589Z" fill="#46CDFB"/>
<path d="M9.83749 11.9519C7.57682 11.9434 5.38014 12.6862 3.60682 14.0589C1.83351 15.4316 0.588566 17.3528 0.0756739 19.5083C-0.0237275 19.9214 -0.0258774 20.3513 0.0693868 20.7655C0.164651 21.1796 0.354836 21.5671 0.625564 21.8986C0.902531 22.2429 1.25584 22.5209 1.65876 22.7117C2.06169 22.9025 2.50366 23.0011 2.95125 23H16.7237C17.1713 23.0011 17.6133 22.9025 18.0162 22.7117C18.4191 22.5209 18.7724 22.2429 19.0494 21.8986C19.3201 21.5671 19.5103 21.1796 19.6056 20.7655C19.7009 20.3513 19.6987 19.9214 19.5993 19.5083C19.0864 17.3528 17.8415 15.4316 16.0682 14.0589C14.2948 12.6862 12.0982 11.9434 9.83749 11.9519Z" fill="#46CDFB"/>
<path d="M21.4407 11.5272C22.2389 11.5272 23.0192 11.2954 23.6829 10.8613C24.3466 10.4271 24.8639 9.81008 25.1694 9.08812C25.4748 8.36616 25.5547 7.57174 25.399 6.80531C25.2433 6.03888 24.8589 5.33488 24.2945 4.78231C23.7301 4.22975 23.0109 3.85345 22.228 3.701C21.4452 3.54855 20.6337 3.62679 19.8962 3.92584C19.1587 4.22488 18.5284 4.73129 18.085 5.38104C17.6415 6.03079 17.4048 6.79468 17.4048 7.57612C17.4048 8.624 17.83 9.62897 18.5869 10.3699C19.3437 11.1109 20.3703 11.5272 21.4407 11.5272Z" fill="#46CDFB"/>
<path d="M9.83748 9.8776C10.8353 9.8776 11.8106 9.58795 12.6403 9.04527C13.4699 8.50258 14.1165 7.73125 14.4983 6.8288C14.8802 5.92635 14.9801 4.93332 14.7854 3.97529C14.5908 3.01726 14.1103 2.13725 13.4047 1.44654C12.6992 0.755838 11.8003 0.285463 10.8217 0.094898C9.84308 -0.0956668 8.82872 0.002138 7.9069 0.375944C6.98507 0.74975 6.19717 1.38277 5.64283 2.19495C5.08849 3.00713 4.79262 3.962 4.79262 4.9388C4.79262 6.24865 5.32413 7.50486 6.27022 8.43106C7.21632 9.35727 8.4995 9.8776 9.83748 9.8776Z" fill="#46CDFB"/>
</g>
<defs>
<clipPath id="clip0_35_651">
<rect width="29.7647" height="23" fill="white"/>
</clipPath>
</defs>
</svg>
